<svg width="188" height="188" viewBox="0 0 188 188" fill="none" xmlns="http://www.w3.org/2000/svg">
<g clip-path="url(#clip0_78_898)">
<rect width="188" height="188" rx="94" fill="#D3E7FF"/>
<line y1="33.5" x2="192.003" y2="33.5" stroke="#8EC2FF"/>
<line y1="11.5" x2="192.003" y2="11.5" stroke="#8EC2FF"/>
<line y1="55.5" x2="192.003" y2="55.5" stroke="#8EC2FF"/>
<line y1="77.5" x2="192.003" y2="77.5" stroke="#8EC2FF"/>
<line y1="99.5" x2="192.003" y2="99.5" stroke="#8EC2FF"/>
<line y1="121.5" x2="192.003" y2="121.5" stroke="#8EC2FF"/>
<line y1="143.5" x2="192.003" y2="143.5" stroke="#8EC2FF"/>
<line y1="165.5" x2="192.003" y2="165.5" stroke="#8EC2FF"/>
<line y1="187.5" x2="192.003" y2="187.5" stroke="#8EC2FF"/>
<line x1="27.5" y1="188.003" x2="27.5" y2="-4.00005" stroke="#8EC2FF"/>
<line x1="5.5" y1="188.003" x2="5.5" y2="-4.00005" stroke="#8EC2FF"/>
<line x1="49.5" y1="188.003" x2="49.5" y2="-4.00005" stroke="#8EC2FF"/>
<line x1="71.5" y1="188.003" x2="71.5" y2="-4.00005" stroke="#8EC2FF"/>
<line x1="93.5" y1="188.003" x2="93.5" y2="-4.00005" stroke="#8EC2FF"/>
<line x1="115.5" y1="188.003" x2="115.5" y2="-4.00005" stroke="#8EC2FF"/>
<line x1="137.5" y1="188.003" x2="137.5" y2="-4.00005" stroke="#8EC2FF"/>
<line x1="159.5" y1="188.003" x2="159.5" y2="-4.00005" stroke="#8EC2FF"/>
<line x1="181.5" y1="188.003" x2="181.5" y2="-4.00005" stroke="#8EC2FF"/>
</g>
<defs>
<clipPath id="clip0_78_898">
<rect width="188" height="188" rx="94" fill="white"/>
</clipPath>
</defs>
</svg>
