<svg width="261" height="474" viewBox="0 0 261 474" fill="none" xmlns="http://www.w3.org/2000/svg">
<rect width="261" height="474" rx="3" fill="#DDEAF6"/>
<rect x="40" y="74" width="14" height="14" rx="1" stroke="#6482C6" stroke-width="2"/>
<line x1="65.9985" y1="87.7346" x2="223.002" y2="87.7346" stroke="#6482C6" stroke-width="1.5"/>
<rect x="40" y="116" width="14" height="14" rx="1" stroke="#6482C6" stroke-width="2"/>
<line x1="65.9985" y1="129.735" x2="223.002" y2="129.735" stroke="#6482C6" stroke-width="1.5"/>
<rect x="40" y="158" width="14" height="14" rx="1" stroke="#6482C6" stroke-width="2"/>
<line x1="65.9985" y1="171.735" x2="223.002" y2="171.735" stroke="#6482C6" stroke-width="1.5"/>
<rect x="40" y="200" width="14" height="14" rx="1" stroke="#6482C6" stroke-width="2"/>
<line x1="65.9985" y1="213.735" x2="223.002" y2="213.735" stroke="#6482C6" stroke-width="1.5"/>
<rect x="40" y="242" width="14" height="14" rx="1" stroke="#6482C6" stroke-width="2"/>
<line x1="65.9985" y1="255.735" x2="223.002" y2="255.735" stroke="#6482C6" stroke-width="1.5"/>
<rect x="40" y="284" width="14" height="14" rx="1" stroke="#6482C6" stroke-width="2"/>
<line x1="65.9985" y1="297.735" x2="223.002" y2="297.735" stroke="#6482C6" stroke-width="1.5"/>
<rect x="40" y="326" width="14" height="14" rx="1" stroke="#6482C6" stroke-width="2"/>
<line x1="65.9985" y1="339.735" x2="223.002" y2="339.735" stroke="#6482C6" stroke-width="1.5"/>
<rect x="40" y="368" width="14" height="14" rx="1" stroke="#6482C6" stroke-width="2"/>
<line x1="65.9985" y1="381.735" x2="223.002" y2="381.735" stroke="#6482C6" stroke-width="1.5"/>
<rect x="40" y="410" width="14" height="14" rx="1" stroke="#6482C6" stroke-width="2"/>
<line x1="65.9985" y1="423.735" x2="223.002" y2="423.735" stroke="#6482C6" stroke-width="1.5"/>
</svg>
